HIERARCHY
ROOT Hips
{
	OFFSET	0.00	0.00	0.00
	CHANNELS 6 Xposition Yposition Zposition Zrotation Xrotation Yrotation
	JOINT LeftUpLeg
	{
		OFFSET	 0.126116	-0.014019	-0.065224
		CHANNELS 3 Zrotation Xrotation Yrotation
		JOINT LeftLeg
		{
			OFFSET	 0.000000	 0.000000	 0.569914
			CHANNELS 3 Zrotation Xrotation Yrotation
			JOINT LeftFoot
			{
				OFFSET	 0.000000	 0.000000	 0.544423
				CHANNELS 3 Zrotation Xrotation Yrotation
				JOINT LeftToeBase
				{
					OFFSET	 0.000000	 0.000000	 0.207117
					CHANNELS 3 Zrotation Xrotation Yrotation
					End Site
					{
						OFFSET	 0.000000	 0.000000	 0.207117
					}
				}
			}
		}
	}
	JOINT RightUpLeg
	{
		OFFSET	-0.124023	-0.008373	-0.065224
		CHANNELS 3 Zrotation Xrotation Yrotation
		JOINT RightLeg
		{
			OFFSET	 0.000000	 0.000000	 0.570047
			CHANNELS 3 Zrotation Xrotation Yrotation
			JOINT RightFoot
			{
				OFFSET	 0.000000	 0.000000	 0.544354
				CHANNELS 3 Zrotation Xrotation Yrotation
				JOINT RightToeBase
				{
					OFFSET	 0.000000	 0.000000	 0.207540
					CHANNELS 3 Zrotation Xrotation Yrotation
					End Site
					{
						OFFSET	 0.000000	 0.000000	 0.207540
					}
				}
			}
		}
	}
	JOINT Spine
	{
		OFFSET	 0.000184	-0.007763	 0.117403
		CHANNELS 3 Zrotation Xrotation Yrotation
		JOINT Spine1
		{
			OFFSET	 0.000000	 0.000000	 0.137269
			CHANNELS 3 Zrotation Xrotation Yrotation
			JOINT Spine2
			{
				OFFSET	 0.000000	 0.000000	 0.156879
				CHANNELS 3 Zrotation Xrotation Yrotation
				JOINT LeftShoulder
				{
					OFFSET	 0.080501	-0.002496	 0.160144
					CHANNELS 3 Zrotation Xrotation Yrotation
					JOINT LeftArm
					{
						OFFSET	 0.000000	 0.000000	 0.164363
						CHANNELS 3 Zrotation Xrotation Yrotation
						JOINT LeftForeArm
						{
							OFFSET	 0.000000	 0.000000	 0.364576
							CHANNELS 3 Zrotation Xrotation Yrotation
							JOINT LeftHand
							{
								OFFSET	 0.000000	 0.000000	 0.360812
								CHANNELS 3 Zrotation Xrotation Yrotation
								JOINT LeftHandIndex1
								{
									OFFSET	 0.000000	 0.000000	 0.086006
									CHANNELS 3 Zrotation Xrotation Yrotation
									JOINT LeftHandIndex2
									{
										OFFSET	 0.000000	 0.000000	 0.047236
										CHANNELS 3 Zrotation Xrotation Yrotation
										JOINT LeftHandIndex3
										{
											OFFSET	-0.004284	-0.000551	 0.038166
											CHANNELS 3 Zrotation Xrotation Yrotation
											End Site
											{
												OFFSET	-0.004284	-0.000551	 0.038166
											}
										}
									}
								}
							}
						}
					}
				}
				JOINT Neck
				{
					OFFSET	 0.000000	 0.000000	 0.176489
					CHANNELS 3 Zrotation Xrotation Yrotation
					JOINT Head
					{
						OFFSET	 0.000000	-0.001747	 0.077940
						CHANNELS 3 Zrotation Xrotation Yrotation
						End Site
						{
							OFFSET	 0.000000	-0.001747	 0.077940
						}
					}
				}
				JOINT RightShoulder
				{
					OFFSET	-0.080363	 0.000306	 0.159706
					CHANNELS 3 Zrotation Xrotation Yrotation
					JOINT RightArm
					{
						OFFSET	 0.000000	 0.000000	 0.164196
						CHANNELS 3 Zrotation Xrotation Yrotation
						JOINT RightForeArm
						{
							OFFSET	 0.000000	 0.000000	 0.365611
							CHANNELS 3 Zrotation Xrotation Yrotation
							JOINT RightHand
							{
								OFFSET	 0.000000	 0.000000	 0.360648
								CHANNELS 3 Zrotation Xrotation Yrotation
								JOINT RightHandIndex1
								{
									OFFSET	 0.000000	 0.000000	 0.069977
									CHANNELS 3 Zrotation Xrotation Yrotation
									JOINT RightHandIndex2
									{
										OFFSET	 0.000000	 0.000000	 0.052305
										CHANNELS 3 Zrotation Xrotation Yrotation
										JOINT RightHandIndex3
										{
											OFFSET	 0.009002	-0.000782	 0.042196
											CHANNELS 3 Zrotation Xrotation Yrotation
											End Site
											{
												OFFSET	 0.009002	-0.000782	 0.042196
											}
										}
									}
								}
							}
						}
					}
				}
			}
		}
	}
}
MOTION
Frames:    10
Frame Time: 0.03333334
 5.442130	-0.649320	 0.037376	 74.606190	-0.000008	-0.000005	 4.117190	-1.743456	 179.873500	 3.144682	-11.594540	 1.749894	 4.431011	 71.402240	 1.145402	-2.385833	 28.452760	 0.000004	-4.119452	-2.154259	-179.893100	-3.138409	-11.963990	-1.790670	-4.423576	 71.426400	-1.178366	 2.384659	 28.388700	-0.000001	-1.185610	 2.711298	 0.078684	-1.968311	-1.780905	-0.160598	-2.362806	-2.136365	-0.200078	-91.776180	 78.527400	-180.000000	 12.108080	-5.220968	-1.016091	-4.393920	-0.888993	-0.368775	-18.166150	-0.205489	-4.068548	-3.812334	 37.924440	-2.927599	-2.450526	 36.184240	 0.754587	-1.378229	 35.397820	-2.634230	 0.000023	-3.783169	-0.089619	-0.581394	 1.250245	 0.006345	 89.782120	 78.203870	 180.000000	-12.512960	-5.961348	 1.072667	 4.635256	-0.427219	 0.526652	 18.481010	-1.326595	 8.278488	 6.437017	 35.671460	-0.771858	 2.830251	 35.756010	-7.813440	-2.350882	 35.473990	 5.254307
 5.435132	-0.652157	 0.034444	 165.469100	 3.986918	-0.768079	 9.897850	 17.090150	-176.321300	-6.098150	-11.623850	 1.540668	-20.024950	 89.246450	 23.505420	-2.298163	 39.992480	-0.275422	 4.043441	-45.829520	 179.488600	-0.840098	-43.626830	 3.138559	-177.319700	 83.444340	-178.617000	 2.405307	 21.080320	-0.151577	-3.203103	 2.090981	 2.732566	-4.713926	-5.385483	 0.823182	-5.312696	-9.349213	-1.408496	-91.776180	 78.527400	 180.000000	 41.528920	 62.106990	-56.744910	-6.771802	-4.598032	-27.928760	 4.763389	-2.104287	-5.366117	-3.812334	 37.924440	-2.927599	-2.450526	 36.184240	 0.754587	-1.378229	 35.397820	-2.634230	-0.149446	 4.733594	-2.340658	-1.154379	-23.141490	-3.005876	 89.782090	 78.203830	-180.000000	-31.533110	 72.953530	 35.614150	 3.900823	-6.602687	 20.267860	-14.267760	-3.278042	 9.542644	 6.437017	 35.671460	-0.771858	 2.830251	 35.756010	-7.813440	-2.350882	 35.473990	 5.254307
 5.439098	-0.633907	 0.029301	 165.853500	 4.062167	-0.976059	 9.576901	 17.842390	-176.277000	-5.860712	-11.624640	 1.534762	-13.128690	 89.098210	 16.575830	-2.283405	 41.237920	-0.309326	 4.371363	-45.802050	-179.977600	-0.394352	-42.628780	 3.488494	-176.601100	 84.132920	-178.842600	 2.395533	 25.500220	-0.061350	-3.296547	 2.034003	 2.738566	-4.821631	-5.460544	 0.761384	-5.359650	-9.354628	-1.452844	-91.776180	 78.527400	 180.000000	 42.145440	 62.165250	-57.423140	-6.500519	-4.588365	-27.062350	 4.966446	-2.111589	-5.364231	-3.812334	 37.924440	-2.927599	-2.450526	 36.184240	 0.754587	-1.378229	 35.397820	-2.634230	-0.229438	 4.954982	-2.320402	-1.221306	-23.467580	-3.025966	 89.782090	 78.203890	-180.000000	-30.578400	 73.095690	 34.247570	 3.899111	-6.511677	 19.845810	-14.344560	-3.281025	 9.540446	 6.437017	 35.671460	-0.771858	 2.830251	 35.756010	-7.813440	-2.350882	 35.473990	 5.254307
 5.443791	-0.614545	 0.028709	 166.303500	 4.144074	-1.141991	 9.296820	 18.636080	-176.334900	-5.592703	-11.624660	 1.534808	-7.392060	 88.874130	 10.838190	-2.268400	 42.405470	-0.342110	 4.640884	-45.619860	-179.510000	-0.053384	-42.155470	 3.783002	-176.065300	 84.902500	-179.016800	 2.383860	 28.567930	 0.003881	-3.402658	 1.934567	 2.700746	-4.938224	-5.503609	 0.684292	-5.428172	-9.345769	-1.496584	-91.776180	 78.527400	-180.000000	 42.879630	 62.402840	-58.179830	-6.316400	-4.584028	-26.145560	 5.209591	-2.120171	-5.361803	-3.812334	 37.924440	-2.927599	-2.450526	 36.184240	 0.754587	-1.378229	 35.397820	-2.634230	-0.314726	 5.101095	-2.301759	-1.287422	-23.668700	-3.031398	 89.782120	 78.203870	 180.000000	-30.145550	 73.290870	 33.495940	 3.836541	-6.452452	 19.473040	-14.474030	-3.286094	 9.536856	 6.437017	 35.671460	-0.771858	 2.830251	 35.756010	-7.813440	-2.350882	 35.473990	 5.254307
 5.450574	-0.588486	 0.028769	 166.778000	 4.261734	-1.287015	 8.993224	 19.693150	-176.533000	-5.207969	-11.623580	 1.543249	-1.561627	 88.368290	 5.056769	-2.245265	 44.045630	-0.389953	 4.947929	-45.279760	-179.048700	 0.313526	-42.138980	 4.164280	-175.504000	 85.887770	-179.210100	 2.375929	 30.186520	 0.039378	-3.526111	 1.800067	 2.584339	-5.061110	-5.570228	 0.565969	-5.472156	-9.303960	-1.544236	-91.776180	 78.527400	 180.000000	 43.745380	 62.891870	-58.938600	-6.197058	-4.563559	-24.905750	 5.533575	-2.133196	-5.357931	-3.812334	 37.924440	-2.927599	-2.450526	 36.184240	 0.754587	-1.378229	 35.397820	-2.634230	-0.420836	 5.202690	-2.284453	-1.363961	-23.755910	-2.994629	 89.782120	 78.203870	 180.000000	-29.380830	 73.616200	 32.388550	 3.874051	-6.389631	 19.040450	-14.647660	-3.293717	 9.530917	 6.437017	 35.671460	-0.771858	 2.830251	 35.756010	-7.813440	-2.350882	 35.473990	 5.254307
 5.455472	-0.570420	 0.027236	 167.073400	 4.353559	-1.366843	 8.819788	 20.411040	-176.722600	-4.929548	-11.622240	 1.553442	 1.048278	 87.851230	 2.511061	-2.225586	 45.314440	-0.428543	 5.143775	-44.957710	-178.769300	 0.600523	-42.423160	 4.482447	-175.573900	 86.567890	-178.896700	 2.376795	 30.022510	 0.035744	-3.613368	 1.682517	 2.484033	-5.141404	-5.629740	 0.476442	-5.497044	-9.279741	-1.576854	-91.776180	 78.527380	-180.000000	 44.275380	 63.316720	-59.333480	-6.188836	-4.541760	-24.066430	 5.753439	-2.143666	-5.354661	-3.812334	 37.924440	-2.927599	-2.450526	 36.184240	 0.754587	-1.378229	 35.397820	-2.634230	-0.491029	 5.170541	-2.258938	-1.407148	-23.706220	-2.939038	 89.782090	 78.203830	-180.000000	-28.851650	 73.841220	 31.641430	 3.916984	-6.353444	 18.780600	-14.760360	-3.298868	 9.526738	 6.437017	 35.671460	-0.771858	 2.830251	 35.756010	-7.813440	-2.350882	 35.473990	 5.254307
 5.461267	-0.549489	 0.026186	 167.377700	 4.461890	-1.444094	 8.649266	 21.227430	-176.982600	-4.594422	-11.620120	 1.569354	 2.953019	 87.042290	 0.713097	-2.198377	 46.911050	-0.479304	 5.316500	-44.515210	-178.498300	 1.112660	-42.960260	 4.982343	-175.356600	 87.477410	-178.744600	 2.381028	 29.176070	 0.017117	-3.716231	 1.542253	 2.340421	-5.224572	-5.713060	 0.377926	-5.500949	-9.265154	-1.616625	-91.776180	 78.527400	-180.000000	 44.768430	 63.898000	-59.561230	-6.246721	-4.510966	-23.129310	 6.002340	-2.157267	-5.350278	-3.812334	 37.924440	-2.927599	-2.450526	 36.184240	 0.754587	-1.378229	 35.397820	-2.634230	-0.568042	 5.080418	-2.220544	-1.448896	-23.580120	-2.850373	 89.782140	 78.203830	 180.000000	-28.221100	 74.095150	 30.764090	 3.980919	-6.316141	 18.514780	-14.878090	-3.304455	 9.522169	 6.437017	 35.671460	-0.771858	 2.830251	 35.756010	-7.813440	-2.350882	 35.473990	 5.254307
 5.468801	-0.523345	 0.025881	 167.694900	 4.517893	-1.490761	 8.495034	 22.216660	-177.396600	-4.156643	-11.616670	 1.595101	 4.245316	 85.665010	-0.393439	-2.159292	 48.948440	-0.548074	 5.241313	-43.916300	-178.486800	 2.451329	-43.826880	 6.002237	-174.631900	 88.943900	-178.688700	 2.380216	 29.343170	 0.020780	-3.844927	 1.378462	 2.074311	-5.305039	-5.839527	 0.266258	-5.458005	-9.282507	-1.666616	-91.776180	 78.527400	-180.000000	 45.165550	 64.748780	-59.455030	-6.411995	-4.467317	-22.027480	 6.303617	-2.175223	-5.344247	-3.812334	 37.924440	-2.927599	-2.450526	 36.184240	 0.754587	-1.378229	 35.397820	-2.634230	-0.659804	 4.945696	-2.161348	-1.495445	-23.366490	-2.722374	 89.782120	 78.203870	 180.000000	-27.383770	 74.394820	 29.610230	 4.079008	-6.273281	 18.229310	-15.000220	-3.310321	 9.517406	 6.437017	 35.671460	-0.771858	 2.830251	 35.756010	-7.813440	-2.350882	 35.473990	 5.254307
 5.475768	-0.499481	 0.026339	 167.902700	 4.481184	-1.455707	 8.448837	 23.089800	-177.862600	-3.752413	-11.611940	 1.629560	 4.831508	 84.028370	-0.729313	-2.120551	 50.731190	-0.612462	 4.866927	-43.365730	-178.736100	 4.211473	-44.701680	 7.202384	 7.156526	 89.401600	 0.405698	 2.374451	 30.462430	 0.045516	-3.930348	 1.242105	 1.728981	-5.332299	-5.958614	 0.160937	-5.405240	-9.331305	-1.687072	-91.776170	 78.527420	-180.000000	 45.324820	 65.619100	-59.044330	-6.647547	-4.425717	-21.102740	 6.568220	-2.191572	-5.338499	-3.812334	 37.924440	-2.927599	-2.450526	 36.184240	 0.754587	-1.378229	 35.397820	-2.634230	-0.744839	 4.849433	-2.097867	-1.541977	-23.169300	-2.591483	 89.782120	 78.203870	 180.000000	-26.551420	 74.644450	 28.466930	 4.183981	-6.235265	 18.009410	-15.082290	-3.314313	 9.514297	 6.437017	 35.671460	-0.771858	 2.830251	 35.756010	-7.813440	-2.350882	 35.473990	 5.254307
 5.483073	-0.474557	 0.027506	 168.038700	 4.432516	-1.373348	 8.498040	 23.973940	-178.378800	-3.394897	-11.606370	 1.669196	 5.070260	 81.889930	-0.652917	-2.084481	 52.220690	-0.669747	 4.371157	-42.712940	-179.088400	 5.788953	-45.553230	 8.237342	 7.512496	 87.899700	 0.719407	 2.370342	 31.193480	 0.061897	-3.953923	 1.073198	 1.333019	-5.302223	-6.072503	 0.039988	-5.369142	-9.390918	-1.665696	-91.776180	 78.527400	-180.000000	 45.273870	 66.598310	-58.327550	-7.007511	-4.372388	-20.239280	 6.797232	-2.207752	-5.332552	-3.812334	 37.924440	-2.927599	-2.450526	 36.184240	 0.754587	-1.378229	 35.397820	-2.634230	-0.836294	 4.805584	-2.023023	-1.580564	-23.029630	-2.421885	 89.782140	 78.203830	 180.000000	-25.653460	 74.873910	 27.233320	 4.301114	-6.196590	 17.817880	-15.139050	-3.316998	 9.512140	 6.437017	 35.671460	-0.771858	 2.830251	 35.756010	-7.813440	-2.350882	 35.473990	 5.254307
